<svg xmlns="http://www.w3.org/2000/svg" viewBox="0 0 64 64" role="img" aria-label="Gamepad">
  <rect width="64" height="64" rx="14" fill="#1f2933"/>
  <path d="M18 22h28a11 11 0 0 1 10.8 13.3l-1.7 7.6a4.8 4.8 0 0 1-8.1 2.3l-3-3a3.8 3.8 0 0 0-2.7-1.1h-8.6a3.8 3.8 0 0 0-2.7 1.1l-3 3a4.8 4.8 0 0 1-8.1-2.3l-1.7-7.6A11 11 0 0 1 18 22Z" fill="#dfe7ef"/>
  <path d="M21 30h-3v3h3v3h3v-3h3v-3h-3v-3h-3v3Zm24 0a2.6 2.6 0 1 0 0 5.2 2.6 2.6 0 0 0 0-5.2Zm6-2.2a2.6 2.6 0 1 0 0 5.2 2.6 2.6 0 0 0 0-5.2Z" fill="#1f2933"/>
</svg>
